<!DOCTYPE svg PUBLIC "-//W3C//DTD SVG 1.1//EN" "http://www.w3.org/Graphics/SVG/1.1/DTD/svg11.dtd">
<!-- Uploaded to: SVG Repo, www.svgrepo.com, Transformed by: SVG Repo Mixer Tools -->
<svg width="256px" height="256px" viewBox="0 0 48.00 48.00" xmlns="http://www.w3.org/2000/svg" fill="#ffffff" transform="matrix(-1, 0, 0, 1, 0, 0)">
<g id="SVGRepo_bgCarrier" stroke-width="0">
<path transform="translate(0, 0), scale(1.5)" d="M16,31.198652283421584C19.9400199545543,31.017348423940515,23.728949768346517,29.28335525741176,26.250302788167772,26.250302788167772C28.581531816534394,23.445959284788817,28.862074959354146,19.6396690605942,28.6345218952213,16C28.424121117399824,12.634678578027348,27.530132435543653,9.233895804505863,25.04401686379685,6.955983136203152C22.644460908365417,4.757381039303068,19.254255303759557,4.46284534173234,16,4.423572174140386C12.691317076465873,4.3836421604089875,9.111948993913714,4.433023801342693,6.735025647201512,6.735025647201509C4.3336756012028195,9.060684253773085,4.367186507798481,12.672459706918898,4.046802994396005,15.999999999999998C3.672793566029747,19.8845052595373,2.348386953783145,24.17169645768766,4.760838564710509,27.239161435289486C7.313472617369633,30.48487029083653,11.87513166184132,31.388462121489784,16,31.198652283421584" fill="#823bc4" strokewidth="0"/>
</g>
<g id="SVGRepo_tracerCarrier" stroke-linecap="round" stroke-linejoin="round"/>
<g id="SVGRepo_iconCarrier"> <path d="M0 0h48v48H0z" fill="none"/> <g id="Shopicon"> <path d="M41.339,22.906c-0.165-0.375-0.361-0.767-0.58-1.167c-0.109-0.2-0.218-0.399-0.341-0.603 c-0.095-0.157-0.205-0.316-0.31-0.474c-0.275-0.417-0.577-0.837-0.92-1.255c-0.076-0.093-0.153-0.184-0.232-0.276 c-0.215-0.249-0.437-0.498-0.679-0.742c-0.306-0.31-0.632-0.616-0.985-0.915c-0.006-0.005-0.013-0.009-0.019-0.015 c-0.004-0.003-0.007-0.007-0.011-0.01c-0.037-0.03-0.077-0.056-0.115-0.086c-3.209-2.648-6.628-3.232-7.964-3.355 c-4.688-0.439-8.092,1.604-9.21,2.274c-0.014,0.009-0.026,0.019-0.041,0.027c-3.287,1.889-5.192,4.659-6.218,6.689H11.81 C6.952,23,3,26.952,3,31.81V36h5.349c0.825,2.329,3.04,4,5.651,4s4.827-1.671,5.651-4h8.698c0.825,2.329,3.04,4,5.651,4 s4.827-1.671,5.651-4H45V23h-3.614C41.372,22.967,41.353,22.938,41.339,22.906z M38.542,27h1.459L14.67,27.016V27h1.676H38.542z M22.027,19.716c0.931-0.558,3.404-2.037,6.789-1.725c0.763,0.071,3.443,0.462,5.892,2.535c0.93,0.787,1.632,1.644,2.162,2.474 H18.425C19.266,21.864,20.434,20.669,22.027,19.716z M14,36c-1.103,0-2-0.897-2-2s0.897-2,2-2s2,0.897,2,2S15.103,36,14,36z M34,36 c-1.103,0-2-0.897-2-2s0.897-2,2-2c1.103,0,2,0.897,2,2S35.103,36,34,36z"/> </g> </g>
</svg>